<svg width="20" height="20" viewBox="0 0 20 20" fill="none" xmlns="http://www.w3.org/2000/svg">
<path fill-rule="evenodd" clip-rule="evenodd" d="M18.469 1.53435L18.4613 1.52686L18.4536 1.51938L18.452 1.51786C15.8717 -1.03908 11.1492 -0.268129 7.78385 3.09812C7.28163 3.60049 6.82842 4.14208 6.43151 4.71145C4.42252 4.41356 2.65427 4.91396 1.43982 6.12878L1.43219 6.1367L1.42584 6.14332L1.42302 6.14625C-1.01069 8.60808 -0.238738 13.5662 3.09693 16.9028C6.47444 20.2812 11.4378 20.9912 13.868 18.5603L13.8768 18.5512L13.8815 18.5464C15.086 17.332 15.5817 15.5692 15.285 13.5673C15.8542 13.1702 16.3957 12.717 16.8979 12.2146C20.2807 8.83079 21.0377 4.10375 18.469 1.53435ZM8.61241 3.9269C11.2183 1.32034 14.6478 0.495396 16.8321 1.74604L16.8056 1.75507C15.505 2.198 14.3536 2.96266 13.476 3.96648C12.6415 4.92088 12.0542 6.09283 11.7689 7.36603C10.5339 6.24768 9.12245 5.43086 7.67667 4.99258C7.96206 4.62095 8.27499 4.26437 8.61241 3.9269ZM1.66134 7.79513C0.495404 10.0419 1.469 13.6169 3.92545 16.074C6.68354 18.8328 10.7079 19.6266 12.7777 17.9655L12.5985 17.4199C11.848 15.1355 9.91694 13.4261 7.55893 12.9586C4.82123 12.4159 2.56162 10.4375 1.66134 7.79513ZM13.6601 16.9057C12.7439 14.2947 10.5075 12.3483 7.78667 11.8089C5.45733 11.3471 3.53494 9.66344 2.76963 7.41491L2.53252 6.71824C4.68354 4.94878 8.5819 5.81393 11.3823 8.61507C12.7378 9.9709 13.7926 11.7296 14.1064 13.6129C14.3163 14.873 14.1578 16.0079 13.6601 16.9057ZM12.7419 8.35293C13.8031 9.55829 14.5803 10.9239 15.0039 12.3218C15.3754 12.0363 15.7319 11.7232 16.0693 11.3859C18.8922 8.56217 19.6436 4.75681 17.8803 2.62722L17.1832 2.86459C14.913 3.63764 13.3433 5.43262 12.8763 7.78923C12.8389 7.97818 12.7934 8.16663 12.7419 8.35293Z" fill="#573318"/>
</svg>
